<?xml version="1.0" encoding="UTF-8"?>
<svg xmlns="http://www.w3.org/2000/svg" xmlns:xlink="http://www.w3.org/1999/xlink" width="24pt" height="24pt" viewBox="0 0 24 24" version="1.1">
<g id="surface1">
<path style=" stroke:none;fill-rule:nonzero;fill:rgb(25.098039%,34.901961%,41.960784%);fill-opacity:1;" d="M 21.75 16.550781 L 2.25 16.550781 C 1.699219 16.550781 1.25 16.101562 1.25 15.550781 L 1.25 1 C 1.25 0.449219 1.699219 0 2.25 0 L 21.800781 0 C 22.351562 0 22.800781 0.449219 22.800781 1 L 22.800781 15.550781 C 22.75 16.148438 22.300781 16.550781 21.75 16.550781 Z M 21.75 16.550781 "/>
<path style=" stroke:none;fill-rule:nonzero;fill:rgb(67.45098%,70.196078%,72.941176%);fill-opacity:1;" d="M 1.949219 11.5 L 0.5 11.5 C 0.199219 11.5 0 11.300781 0 11 L 0 8.25 C 0 7.949219 0.199219 7.75 0.5 7.75 L 1.949219 7.75 C 2.25 7.75 2.449219 7.949219 2.449219 8.25 L 2.449219 11 C 2.449219 11.300781 2.199219 11.5 1.949219 11.5 Z M 1.949219 11.5 "/>
<path style=" stroke:none;fill-rule:nonzero;fill:rgb(80.392157%,83.921569%,87.843137%);fill-opacity:1;" d="M 1.601562 7.75 L 0.851562 7.75 L 0.851562 7.25 C 0.851562 6.648438 1.351562 6.148438 1.949219 6.148438 L 3.75 6.148438 L 3.75 6.898438 L 1.949219 6.898438 C 1.75 6.898438 1.601562 7.050781 1.601562 7.25 Z M 1.601562 7.75 "/>
<path style=" stroke:none;fill-rule:nonzero;fill:rgb(67.45098%,70.196078%,72.941176%);fill-opacity:1;" d="M 22.050781 11.5 L 23.5 11.5 C 23.800781 11.5 24 11.300781 24 11 L 24 8.25 C 24 7.949219 23.800781 7.75 23.5 7.75 L 22.050781 7.75 C 21.75 7.75 21.550781 7.949219 21.550781 8.25 L 21.550781 11 C 21.550781 11.300781 21.800781 11.5 22.050781 11.5 Z M 22.050781 11.5 "/>
<path style=" stroke:none;fill-rule:nonzero;fill:rgb(80.392157%,83.921569%,87.843137%);fill-opacity:1;" d="M 22.398438 7.75 L 23.148438 7.75 L 23.148438 7.25 C 23.148438 6.648438 22.648438 6.148438 22.050781 6.148438 L 20.25 6.148438 L 20.25 6.898438 L 22.050781 6.898438 C 22.25 6.898438 22.398438 7.050781 22.398438 7.25 Z M 22.398438 7.75 "/>
<path style=" stroke:none;fill-rule:nonzero;fill:rgb(25.098039%,34.901961%,41.960784%);fill-opacity:1;" d="M 6.851562 24 L 5.300781 24 C 4.75 24 4.300781 23.550781 4.300781 23 L 4.300781 21.800781 L 7.851562 21.800781 L 7.851562 23 C 7.851562 23.550781 7.398438 24 6.851562 24 Z M 6.851562 24 "/>
<path style=" stroke:none;fill-rule:nonzero;fill:rgb(25.098039%,34.901961%,41.960784%);fill-opacity:1;" d="M 18.75 24 L 17.199219 24 C 16.648438 24 16.199219 23.550781 16.199219 23 L 16.199219 21.800781 L 19.75 21.800781 L 19.75 23 C 19.75 23.550781 19.300781 24 18.75 24 Z M 18.75 24 "/>
<path style=" stroke:none;fill-rule:nonzero;fill:rgb(25.098039%,34.901961%,41.960784%);fill-opacity:1;" d="M 6.851562 24 L 5.300781 24 C 4.75 24 4.300781 23.550781 4.300781 23 L 4.300781 21.800781 L 7.851562 21.800781 L 7.851562 23 C 7.851562 23.550781 7.398438 24 6.851562 24 Z M 6.851562 24 "/>
<path style=" stroke:none;fill-rule:nonzero;fill:rgb(25.098039%,34.901961%,41.960784%);fill-opacity:1;" d="M 18.75 24 L 17.199219 24 C 16.648438 24 16.199219 23.550781 16.199219 23 L 16.199219 21.800781 L 19.75 21.800781 L 19.75 23 C 19.75 23.550781 19.300781 24 18.75 24 Z M 18.75 24 "/>
<path style=" stroke:none;fill-rule:nonzero;fill:rgb(20%,29.019608%,36.862745%);fill-opacity:1;" d="M 4.300781 21.800781 L 7.851562 21.800781 L 7.851562 22.550781 L 4.300781 22.550781 Z M 4.300781 21.800781 "/>
<path style=" stroke:none;fill-rule:nonzero;fill:rgb(20%,29.019608%,36.862745%);fill-opacity:1;" d="M 16.199219 21.800781 L 19.75 21.800781 L 19.75 22.550781 L 16.199219 22.550781 Z M 16.199219 21.800781 "/>
<path style=" stroke:none;fill-rule:nonzero;fill:rgb(97.254902%,71.372549%,29.803922%);fill-opacity:1;" d="M 21 21.800781 L 3 21.800781 C 2.449219 21.800781 2 21.351562 2 20.800781 L 2 13.601562 C 2 13.050781 2.449219 12.601562 3 12.601562 L 21 12.601562 C 21.550781 12.601562 22 13.050781 22 13.601562 L 22 20.800781 C 22 21.351562 21.601562 21.800781 21 21.800781 Z M 21 21.800781 "/>
<path style=" stroke:none;fill-rule:nonzero;fill:rgb(100%,43.921569%,34.509804%);fill-opacity:1;" d="M 21 19.648438 L 3 19.648438 C 2.449219 19.648438 2 19.199219 2 18.648438 L 2 20.800781 C 2 21.351562 2.449219 21.800781 3 21.800781 L 21 21.800781 C 21.550781 21.800781 22 21.351562 22 20.800781 L 22 18.648438 C 22 19.199219 21.601562 19.648438 21 19.648438 Z M 21 19.648438 "/>
<path style=" stroke:none;fill-rule:nonzero;fill:rgb(100%,100%,100%);fill-opacity:1;" d="M 7.050781 16.449219 L 5.101562 16.148438 C 4.351562 16.050781 3.699219 16.648438 3.699219 17.449219 L 3.699219 17.75 C 3.699219 18.449219 4.300781 19.050781 5 19.050781 L 6.949219 19.050781 C 7.648438 19.050781 8.25 18.449219 8.25 17.75 C 8.199219 17.101562 7.699219 16.550781 7.050781 16.449219 Z M 7.050781 16.449219 "/>
<path style=" stroke:none;fill-rule:nonzero;fill:rgb(100%,100%,100%);fill-opacity:1;" d="M 17.050781 16.449219 L 19 16.148438 C 19.75 16.050781 20.398438 16.648438 20.398438 17.449219 L 20.398438 17.75 C 20.398438 18.449219 19.800781 19.050781 19.101562 19.050781 L 17.148438 19.050781 C 16.449219 19.050781 15.851562 18.449219 15.851562 17.75 C 15.851562 17.101562 16.351562 16.550781 17.050781 16.449219 Z M 17.050781 16.449219 "/>
<path style=" stroke:none;fill-rule:nonzero;fill:rgb(100%,81.960784%,36.078431%);fill-opacity:1;" d="M 3.050781 12.601562 L 8.949219 16.101562 L 15.148438 16.101562 L 21 12.601562 Z M 3.050781 12.601562 "/>
<path style=" stroke:none;fill-rule:nonzero;fill:rgb(100%,81.960784%,36.078431%);fill-opacity:1;" d="M 20.851562 12.601562 L 3.148438 12.601562 L 3.148438 6.101562 C 3.148438 5.199219 3.75 4.398438 4.648438 4.148438 C 9.550781 2.851562 14.449219 2.851562 19.351562 4.148438 C 20.199219 4.398438 20.851562 5.199219 20.851562 6.101562 Z M 20.851562 12.601562 "/>
<path style=" stroke:none;fill-rule:nonzero;fill:rgb(25.098039%,34.901961%,41.960784%);fill-opacity:1;" d="M 12.648438 14.851562 L 11.398438 14.851562 C 10.398438 14.851562 9.5 15.300781 8.898438 16.101562 L 8.898438 19.148438 L 15.101562 19.148438 L 15.101562 16.101562 C 14.550781 15.300781 13.648438 14.851562 12.648438 14.851562 Z M 12.648438 14.851562 "/>
<path style=" stroke:none;fill-rule:nonzero;fill:rgb(32.941176%,75.294118%,92.156863%);fill-opacity:1;" d="M 4.101562 6.050781 L 11.398438 6.050781 L 11.398438 11.601562 L 4.101562 11.601562 Z M 4.101562 6.050781 "/>
<path style=" stroke:none;fill-rule:nonzero;fill:rgb(32.941176%,75.294118%,92.156863%);fill-opacity:1;" d="M 12.601562 6.050781 L 19.898438 6.050781 L 19.898438 11.601562 L 12.601562 11.601562 Z M 12.601562 6.050781 "/>
<path style=" stroke:none;fill-rule:nonzero;fill:rgb(94.901961%,94.901961%,94.901961%);fill-opacity:1;" d="M 5.101562 16.601562 L 7.050781 16.898438 C 7.648438 16.949219 8.101562 17.398438 8.199219 17.949219 C 8.199219 17.898438 8.199219 17.800781 8.199219 17.75 C 8.199219 17.101562 7.699219 16.550781 7.050781 16.449219 L 5.101562 16.148438 C 4.351562 16.050781 3.699219 16.648438 3.699219 17.449219 L 3.699219 17.800781 C 3.699219 17.050781 4.351562 16.5 5.101562 16.601562 Z M 5.101562 16.601562 "/>
<path style=" stroke:none;fill-rule:nonzero;fill:rgb(94.901961%,94.901961%,94.901961%);fill-opacity:1;" d="M 18.949219 16.148438 L 17 16.449219 C 16.351562 16.5 15.851562 17.050781 15.851562 17.75 C 15.851562 17.800781 15.851562 17.898438 15.851562 17.949219 C 15.949219 17.398438 16.398438 16.949219 17 16.898438 L 18.949219 16.601562 C 19.699219 16.5 20.351562 17.101562 20.351562 17.851562 L 20.351562 17.5 C 20.398438 16.699219 19.699219 16.101562 18.949219 16.148438 Z M 18.949219 16.148438 "/>
<path style=" stroke:none;fill-rule:nonzero;fill:rgb(51.764706%,85.882353%,100%);fill-opacity:1;" d="M 17.898438 6.050781 L 13.398438 11.601562 L 12.601562 11.601562 L 12.601562 11.449219 L 16.949219 6.050781 Z M 17.898438 6.050781 "/>
<path style=" stroke:none;fill-rule:nonzero;fill:rgb(51.764706%,85.882353%,100%);fill-opacity:1;" d="M 19.898438 6.050781 L 19.898438 6.25 L 15.550781 11.601562 L 14.050781 11.601562 L 18.550781 6.050781 Z M 19.898438 6.050781 "/>
<path style=" stroke:none;fill-rule:nonzero;fill:rgb(51.764706%,85.882353%,100%);fill-opacity:1;" d="M 9.351562 6.050781 L 4.898438 11.601562 L 4.101562 11.601562 L 4.101562 11.449219 L 8.449219 6.050781 Z M 9.351562 6.050781 "/>
<path style=" stroke:none;fill-rule:nonzero;fill:rgb(51.764706%,85.882353%,100%);fill-opacity:1;" d="M 11.398438 6.050781 L 11.398438 6.25 L 7.050781 11.601562 L 5.5 11.601562 L 10 6.050781 Z M 11.398438 6.050781 "/>
</g>
</svg>
