<?xml version="1.0" encoding="UTF-8"?>
<svg xmlns="http://www.w3.org/2000/svg" xmlns:xlink="http://www.w3.org/1999/xlink" width="18pt" height="18pt" viewBox="0 0 18 18" version="1.1">
<g id="surface1">
<path style=" stroke:none;fill-rule:nonzero;fill:rgb(91.372549%,32.54902%,32.54902%);fill-opacity:1;" d="M 17.75 9.777344 C 17.722656 9.242188 17.523438 8.730469 17.199219 8.304688 C 16.460938 7.347656 16.316406 6.585938 16.316406 6.585938 C 15.742188 5.074219 15.226562 4.0625 14.847656 3.421875 C 14.453125 2.75 13.765625 2.296875 12.992188 2.199219 C 11.433594 1.996094 6.566406 1.996094 5.007812 2.199219 C 4.234375 2.300781 3.546875 2.753906 3.148438 3.421875 C 2.773438 4.0625 2.257812 5.074219 1.679688 6.585938 C 1.679688 6.585938 1.539062 7.347656 0.800781 8.304688 C 0.476562 8.730469 0.277344 9.242188 0.25 9.777344 C 0.195312 10.933594 0.53125 11.191406 0.832031 13.8125 C 0.855469 14.019531 1.03125 14.175781 1.238281 14.175781 L 16.761719 14.175781 C 16.972656 14.175781 17.144531 14.019531 17.167969 13.8125 C 17.253906 13.078125 17.503906 11.585938 17.503906 11.585938 C 17.722656 10.84375 17.769531 10.238281 17.75 9.777344 Z M 17.75 9.777344 "/>
<path style=" stroke:none;fill-rule:nonzero;fill:rgb(8.627451%,55.294118%,88.627451%);fill-opacity:1;" d="M 15.992188 6.523438 C 15.535156 5.386719 15.070312 4.390625 14.609375 3.597656 C 14.257812 2.996094 13.640625 2.578125 12.957031 2.484375 C 11.394531 2.277344 6.59375 2.28125 5.042969 2.484375 C 4.359375 2.578125 3.742188 2.996094 3.390625 3.597656 C 2.921875 4.398438 2.453125 5.410156 2.003906 6.523438 C 6.660156 6.890625 11.335938 6.890625 15.992188 6.523438 Z M 15.992188 6.523438 "/>
<path style=" stroke:none;fill-rule:nonzero;fill:rgb(100%,100%,100%);fill-opacity:1;" d="M 15.332031 7.84375 C 15.152344 7.898438 14.988281 7.976562 14.847656 8.054688 C 14.597656 8.195312 14.339844 8.328125 14.066406 8.429688 C 13.621094 8.597656 13.542969 8.851562 13.542969 8.851562 C 13.53125 8.871094 13.519531 8.886719 13.503906 8.90625 C 13.164062 9.410156 13.613281 10.082031 14.214844 9.996094 C 15.085938 9.875 15.804688 9.621094 16.167969 9.476562 C 16.375 9.390625 16.539062 9.214844 16.59375 8.996094 C 16.597656 8.976562 16.601562 8.957031 16.605469 8.9375 C 16.742188 8.214844 16.03125 7.625 15.332031 7.84375 Z M 15.332031 7.84375 "/>
<path style=" stroke:none;fill-rule:nonzero;fill:rgb(100%,88.627451%,12.156863%);fill-opacity:1;" d="M 16.261719 11.886719 L 15.292969 11.886719 C 15.148438 11.886719 15.074219 12.0625 15.175781 12.167969 L 16.144531 13.136719 C 16.25 13.238281 16.425781 13.164062 16.425781 13.019531 L 16.425781 12.050781 C 16.425781 11.960938 16.351562 11.886719 16.261719 11.886719 Z M 16.261719 11.886719 "/>
<path style=" stroke:none;fill-rule:nonzero;fill:rgb(27.058824%,27.058824%,27.058824%);fill-opacity:1;" d="M 17.167969 13.8125 C 17.144531 14.019531 16.96875 14.175781 16.761719 14.175781 L 14.898438 14.175781 L 14.898438 15.257812 C 14.898438 15.640625 15.207031 15.953125 15.589844 15.953125 L 16.761719 15.953125 C 17.144531 15.953125 17.457031 15.640625 17.457031 15.257812 L 17.457031 11.871094 C 17.378906 12.339844 17.230469 13.277344 17.167969 13.8125 Z M 17.167969 13.8125 "/>
<path style=" stroke:none;fill-rule:nonzero;fill:rgb(92.941176%,38.431373%,38.431373%);fill-opacity:1;" d="M 17.988281 5.769531 C 17.929688 5.515625 17.695312 5.34375 17.433594 5.34375 L 16.96875 5.34375 C 16.667969 5.34375 16.425781 5.585938 16.425781 5.886719 L 16.425781 6.222656 L 16.175781 6.222656 L 16.320312 6.558594 L 16.863281 6.558594 C 17.148438 6.558594 17.425781 6.5 17.683594 6.378906 C 17.914062 6.273438 18.042969 6.023438 17.988281 5.769531 Z M 17.988281 5.769531 "/>
<path style=" stroke:none;fill-rule:nonzero;fill:rgb(100%,74.117647%,28.627451%);fill-opacity:1;" d="M 16.320312 8.71875 C 16.320312 9.09375 16.015625 9.398438 15.636719 9.398438 C 15.261719 9.398438 14.957031 9.09375 14.957031 8.71875 C 14.957031 8.339844 15.261719 8.035156 15.636719 8.035156 C 16.015625 8.035156 16.320312 8.339844 16.320312 8.71875 Z M 16.320312 8.71875 "/>
<path style=" stroke:none;fill-rule:nonzero;fill:rgb(100%,85.882353%,43.529412%);fill-opacity:1;" d="M 14.765625 9.257812 C 14.765625 9.53125 14.542969 9.757812 14.265625 9.757812 C 13.988281 9.757812 13.765625 9.53125 13.765625 9.257812 C 13.765625 8.980469 13.988281 8.753906 14.265625 8.753906 C 14.542969 8.753906 14.765625 8.980469 14.765625 9.257812 Z M 14.765625 9.257812 "/>
<path style=" stroke:none;fill-rule:nonzero;fill:rgb(43.529412%,43.529412%,43.529412%);fill-opacity:1;" d="M 12.964844 9.257812 L 12.183594 10.621094 L 5.816406 10.621094 L 5.035156 9.257812 Z M 12.964844 9.257812 "/>
<path style=" stroke:none;fill-rule:nonzero;fill:rgb(100%,100%,100%);fill-opacity:1;" d="M 4.492188 8.90625 C 4.480469 8.886719 4.46875 8.871094 4.453125 8.851562 C 4.453125 8.851562 4.378906 8.597656 3.929688 8.429688 C 3.660156 8.328125 3.402344 8.195312 3.152344 8.054688 C 3.011719 7.976562 2.847656 7.898438 2.667969 7.84375 C 1.96875 7.625 1.257812 8.214844 1.390625 8.9375 C 1.394531 8.957031 1.402344 8.976562 1.40625 8.996094 C 1.457031 9.214844 1.621094 9.390625 1.832031 9.476562 C 2.195312 9.621094 2.914062 9.875 3.785156 9.996094 C 4.386719 10.082031 4.832031 9.410156 4.492188 8.90625 Z M 4.492188 8.90625 "/>
<path style=" stroke:none;fill-rule:nonzero;fill:rgb(100%,88.627451%,12.156863%);fill-opacity:1;" d="M 2.707031 11.886719 L 1.738281 11.886719 C 1.648438 11.886719 1.574219 11.960938 1.574219 12.050781 L 1.574219 13.019531 C 1.574219 13.164062 1.75 13.238281 1.855469 13.136719 L 2.824219 12.167969 C 2.925781 12.0625 2.851562 11.886719 2.707031 11.886719 Z M 2.707031 11.886719 "/>
<path style=" stroke:none;fill-rule:nonzero;fill:rgb(46.666667%,46.666667%,46.666667%);fill-opacity:1;" d="M 15.453125 13.578125 C 14.445312 11.832031 13.285156 11.886719 13.285156 11.886719 L 4.714844 11.886719 C 4.714844 11.886719 3.554688 11.832031 2.546875 13.578125 L 0.800781 13.578125 L 0.824219 13.804688 C 0.84375 14.015625 1.019531 14.175781 1.230469 14.175781 L 16.769531 14.175781 C 16.980469 14.175781 17.15625 14.015625 17.175781 13.804688 L 17.199219 13.578125 Z M 15.453125 13.578125 "/>
<path style=" stroke:none;fill-rule:nonzero;fill:rgb(27.058824%,27.058824%,27.058824%);fill-opacity:1;" d="M 1.238281 14.175781 C 1.03125 14.175781 0.855469 14.019531 0.832031 13.8125 C 0.769531 13.277344 0.621094 12.339844 0.542969 11.871094 L 0.542969 15.257812 C 0.542969 15.640625 0.855469 15.953125 1.238281 15.953125 L 2.410156 15.953125 C 2.792969 15.953125 3.101562 15.640625 3.101562 15.257812 L 3.101562 14.175781 Z M 1.238281 14.175781 "/>
<path style=" stroke:none;fill-rule:nonzero;fill:rgb(92.941176%,38.431373%,38.431373%);fill-opacity:1;" d="M 1.574219 6.222656 L 1.574219 5.886719 C 1.574219 5.585938 1.332031 5.34375 1.03125 5.34375 L 0.566406 5.34375 C 0.304688 5.34375 0.0703125 5.515625 0.0117188 5.769531 C -0.0429688 6.019531 0.0859375 6.273438 0.316406 6.378906 C 0.574219 6.496094 0.851562 6.558594 1.136719 6.558594 L 1.679688 6.558594 L 1.824219 6.21875 L 1.574219 6.21875 Z M 1.574219 6.222656 "/>
<path style=" stroke:none;fill-rule:nonzero;fill:rgb(100%,74.117647%,28.627451%);fill-opacity:1;" d="M 3.042969 8.71875 C 3.042969 9.09375 2.738281 9.398438 2.363281 9.398438 C 1.984375 9.398438 1.679688 9.09375 1.679688 8.71875 C 1.679688 8.339844 1.984375 8.035156 2.363281 8.035156 C 2.738281 8.035156 3.042969 8.339844 3.042969 8.71875 Z M 3.042969 8.71875 "/>
<path style=" stroke:none;fill-rule:nonzero;fill:rgb(100%,85.882353%,43.529412%);fill-opacity:1;" d="M 4.238281 9.257812 C 4.238281 9.53125 4.011719 9.757812 3.734375 9.757812 C 3.457031 9.757812 3.234375 9.53125 3.234375 9.257812 C 3.234375 8.980469 3.457031 8.753906 3.734375 8.753906 C 4.011719 8.753906 4.238281 8.980469 4.238281 9.257812 Z M 4.238281 9.257812 "/>
<path style=" stroke:none;fill-rule:nonzero;fill:rgb(43.529412%,43.529412%,43.529412%);fill-opacity:1;" d="M 12.628906 12.363281 L 5.371094 12.363281 C 5.257812 12.363281 5.167969 12.457031 5.167969 12.570312 C 5.167969 12.683594 5.257812 12.773438 5.371094 12.773438 L 12.628906 12.773438 C 12.742188 12.773438 12.832031 12.683594 12.832031 12.570312 C 12.832031 12.457031 12.742188 12.363281 12.628906 12.363281 Z M 12.628906 12.363281 "/>
<path style=" stroke:none;fill-rule:nonzero;fill:rgb(43.529412%,43.529412%,43.529412%);fill-opacity:1;" d="M 12.628906 13.183594 L 5.371094 13.183594 C 5.257812 13.183594 5.167969 13.277344 5.167969 13.390625 C 5.167969 13.503906 5.257812 13.59375 5.371094 13.59375 L 12.628906 13.59375 C 12.742188 13.59375 12.832031 13.503906 12.832031 13.390625 C 12.832031 13.277344 12.742188 13.183594 12.628906 13.183594 Z M 12.628906 13.183594 "/>
<path style=" stroke:none;fill-rule:nonzero;fill:rgb(22.745098%,63.529412%,92.156863%);fill-opacity:1;" d="M 15.230469 4.785156 L 15.230469 4.855469 C 15.230469 5.140625 15 5.367188 14.710938 5.355469 C 14.445312 5.335938 14.242188 5.097656 14.242188 4.828125 L 14.242188 3.820312 C 14.242188 3.582031 14.042969 3.398438 13.804688 3.40625 C 13.796875 3.40625 13.796875 3.40625 13.792969 3.40625 C 13.792969 3.40625 13.792969 3.40625 13.789062 3.40625 C 13.550781 3.398438 13.351562 3.582031 13.351562 3.820312 L 13.351562 4.730469 C 13.351562 5.015625 13.109375 5.242188 12.824219 5.222656 C 12.558594 5.210938 12.355469 4.96875 12.355469 4.703125 L 12.355469 3.910156 C 12.355469 3.671875 12.15625 3.472656 11.914062 3.472656 L 11.878906 3.472656 C 11.652344 3.472656 11.464844 3.660156 11.464844 3.886719 L 11.464844 4.917969 C 11.464844 5.203125 11.230469 5.429688 10.941406 5.417969 C 10.675781 5.398438 10.476562 5.160156 10.476562 4.890625 L 10.476562 3.507812 C 10.476562 3.285156 10.285156 3.097656 10.058594 3.117188 L 10.023438 3.117188 C 9.789062 3.117188 9.605469 3.300781 9.605469 3.53125 L 9.605469 4.945312 C 9.605469 5.214844 9.382812 5.441406 9.105469 5.441406 C 8.839844 5.441406 8.621094 5.226562 8.613281 4.960938 L 8.613281 3.773438 C 8.613281 3.5 8.410156 3.265625 8.144531 3.246094 C 7.855469 3.234375 7.625 3.460938 7.625 3.746094 L 7.617188 4.84375 C 7.617188 5.125 7.386719 5.351562 7.097656 5.339844 C 6.835938 5.324219 6.636719 5.09375 6.628906 4.832031 L 6.628906 3.546875 C 6.628906 3.28125 6.429688 3.039062 6.164062 3.023438 C 5.875 3.011719 5.640625 3.238281 5.640625 3.523438 L 5.640625 4.871094 C 5.632812 5.144531 5.402344 5.367188 5.117188 5.355469 C 4.851562 5.339844 4.652344 5.101562 4.652344 4.828125 L 4.652344 3.820312 C 4.652344 3.582031 4.449219 3.398438 4.210938 3.40625 C 4.207031 3.40625 4.207031 3.40625 4.207031 3.40625 C 4.199219 3.40625 4.199219 3.40625 4.199219 3.40625 C 3.957031 3.398438 3.757812 3.582031 3.757812 3.820312 L 3.757812 4.730469 C 3.757812 5.015625 3.519531 5.242188 3.238281 5.222656 C 2.992188 5.214844 2.808594 5.007812 2.777344 4.769531 C 2.515625 5.3125 2.253906 5.898438 2.003906 6.523438 C 6.660156 6.890625 11.335938 6.890625 15.992188 6.523438 C 15.738281 5.894531 15.484375 5.316406 15.230469 4.785156 Z M 15.230469 4.785156 "/>
</g>
</svg>
