<?xml version="1.0" encoding="UTF-8"?>
<svg xmlns="http://www.w3.org/2000/svg" xmlns:xlink="http://www.w3.org/1999/xlink" width="24pt" height="24pt" viewBox="0 0 24 24" version="1.1">
<g id="surface1">
<path style=" stroke:none;fill-rule:nonzero;fill:rgb(91.372549%,32.54902%,32.54902%);fill-opacity:1;" d="M 23.664062 13.035156 C 23.628906 12.320312 23.363281 11.640625 22.929688 11.074219 C 21.949219 9.796875 21.757812 8.78125 21.757812 8.78125 C 20.988281 6.761719 20.300781 5.417969 19.800781 4.566406 C 19.269531 3.667969 18.355469 3.066406 17.320312 2.933594 C 15.246094 2.664062 8.753906 2.664062 6.675781 2.933594 C 5.644531 3.066406 4.730469 3.667969 4.199219 4.566406 C 3.695312 5.417969 3.011719 6.761719 2.242188 8.78125 C 2.242188 8.78125 2.050781 9.796875 1.070312 11.074219 C 0.636719 11.640625 0.371094 12.320312 0.335938 13.035156 C 0.261719 14.578125 0.707031 14.917969 1.109375 18.417969 C 1.140625 18.691406 1.371094 18.898438 1.652344 18.898438 L 22.351562 18.898438 C 22.628906 18.898438 22.859375 18.691406 22.890625 18.417969 C 23.003906 17.4375 23.339844 15.445312 23.339844 15.445312 C 23.628906 14.457031 23.695312 13.652344 23.664062 13.035156 Z M 23.664062 13.035156 "/>
<path style=" stroke:none;fill-rule:nonzero;fill:rgb(8.627451%,55.294118%,88.627451%);fill-opacity:1;" d="M 21.320312 8.699219 C 20.714844 7.179688 20.09375 5.851562 19.476562 4.792969 C 19.011719 3.992188 18.1875 3.433594 17.273438 3.3125 C 15.195312 3.039062 8.792969 3.039062 6.726562 3.3125 C 5.8125 3.433594 4.988281 3.996094 4.523438 4.792969 C 3.898438 5.867188 3.269531 7.210938 2.671875 8.699219 C 8.878906 9.1875 15.113281 9.1875 21.320312 8.699219 Z M 21.320312 8.699219 "/>
<path style=" stroke:none;fill-rule:nonzero;fill:rgb(100%,100%,100%);fill-opacity:1;" d="M 20.441406 10.457031 C 20.203125 10.53125 19.984375 10.636719 19.796875 10.742188 C 19.460938 10.929688 19.117188 11.101562 18.757812 11.238281 C 18.160156 11.464844 18.058594 11.804688 18.058594 11.804688 C 18.042969 11.828125 18.023438 11.851562 18.007812 11.875 C 17.554688 12.546875 18.148438 13.441406 18.953125 13.328125 C 20.113281 13.164062 21.070312 12.828125 21.558594 12.632812 C 21.835938 12.519531 22.054688 12.289062 22.125 11.996094 C 22.132812 11.96875 22.136719 11.941406 22.140625 11.914062 C 22.320312 10.953125 21.375 10.167969 20.441406 10.457031 Z M 20.441406 10.457031 "/>
<path style=" stroke:none;fill-rule:nonzero;fill:rgb(100%,88.627451%,12.156863%);fill-opacity:1;" d="M 21.683594 15.847656 L 20.390625 15.847656 C 20.195312 15.847656 20.097656 16.082031 20.234375 16.222656 L 21.527344 17.515625 C 21.664062 17.652344 21.898438 17.554688 21.898438 17.359375 L 21.898438 16.066406 C 21.898438 15.945312 21.800781 15.847656 21.683594 15.847656 Z M 21.683594 15.847656 "/>
<path style=" stroke:none;fill-rule:nonzero;fill:rgb(27.058824%,27.058824%,27.058824%);fill-opacity:1;" d="M 22.890625 18.417969 C 22.859375 18.691406 22.625 18.898438 22.347656 18.898438 L 19.863281 18.898438 L 19.863281 20.34375 C 19.863281 20.855469 20.277344 21.269531 20.789062 21.269531 L 22.351562 21.269531 C 22.859375 21.269531 23.277344 20.855469 23.277344 20.34375 L 23.277344 15.824219 C 23.171875 16.449219 22.972656 17.703125 22.890625 18.417969 Z M 22.890625 18.417969 "/>
<path style=" stroke:none;fill-rule:nonzero;fill:rgb(92.941176%,38.431373%,38.431373%);fill-opacity:1;" d="M 23.980469 7.691406 C 23.90625 7.355469 23.589844 7.125 23.246094 7.125 L 22.625 7.125 C 22.222656 7.125 21.898438 7.449219 21.898438 7.851562 L 21.898438 8.292969 L 21.570312 8.292969 L 21.757812 8.746094 L 22.484375 8.746094 C 22.863281 8.746094 23.234375 8.664062 23.578125 8.507812 C 23.886719 8.367188 24.058594 8.027344 23.980469 7.691406 Z M 23.980469 7.691406 "/>
<path style=" stroke:none;fill-rule:nonzero;fill:rgb(100%,74.117647%,28.627451%);fill-opacity:1;" d="M 21.761719 11.625 C 21.761719 12.125 21.351562 12.535156 20.851562 12.535156 C 20.347656 12.535156 19.941406 12.125 19.941406 11.625 C 19.941406 11.121094 20.347656 10.714844 20.851562 10.714844 C 21.351562 10.714844 21.761719 11.121094 21.761719 11.625 Z M 21.761719 11.625 "/>
<path style=" stroke:none;fill-rule:nonzero;fill:rgb(100%,85.882353%,43.529412%);fill-opacity:1;" d="M 19.6875 12.34375 C 19.6875 12.710938 19.390625 13.011719 19.019531 13.011719 C 18.652344 13.011719 18.351562 12.710938 18.351562 12.34375 C 18.351562 11.972656 18.652344 11.671875 19.019531 11.671875 C 19.390625 11.671875 19.6875 11.972656 19.6875 12.34375 Z M 19.6875 12.34375 "/>
<path style=" stroke:none;fill-rule:nonzero;fill:rgb(43.529412%,43.529412%,43.529412%);fill-opacity:1;" d="M 17.289062 12.34375 L 16.242188 14.160156 L 7.757812 14.160156 L 6.710938 12.34375 Z M 17.289062 12.34375 "/>
<path style=" stroke:none;fill-rule:nonzero;fill:rgb(100%,100%,100%);fill-opacity:1;" d="M 5.992188 11.875 C 5.976562 11.851562 5.957031 11.828125 5.941406 11.804688 C 5.941406 11.804688 5.839844 11.464844 5.242188 11.238281 C 4.882812 11.101562 4.539062 10.929688 4.199219 10.742188 C 4.015625 10.636719 3.796875 10.53125 3.558594 10.457031 C 2.625 10.164062 1.679688 10.953125 1.855469 11.914062 C 1.859375 11.941406 1.867188 11.96875 1.875 11.996094 C 1.945312 12.289062 2.160156 12.519531 2.441406 12.632812 C 2.925781 12.828125 3.882812 13.164062 5.046875 13.328125 C 5.851562 13.441406 6.445312 12.546875 5.992188 11.875 Z M 5.992188 11.875 "/>
<path style=" stroke:none;fill-rule:nonzero;fill:rgb(100%,88.627451%,12.156863%);fill-opacity:1;" d="M 3.609375 15.847656 L 2.316406 15.847656 C 2.195312 15.847656 2.101562 15.945312 2.101562 16.066406 L 2.101562 17.359375 C 2.101562 17.554688 2.335938 17.652344 2.472656 17.515625 L 3.765625 16.222656 C 3.902344 16.085938 3.804688 15.847656 3.609375 15.847656 Z M 3.609375 15.847656 "/>
<path style=" stroke:none;fill-rule:nonzero;fill:rgb(46.666667%,46.666667%,46.666667%);fill-opacity:1;" d="M 20.605469 18.105469 C 19.257812 15.777344 17.710938 15.847656 17.710938 15.847656 L 6.289062 15.847656 C 6.289062 15.847656 4.742188 15.777344 3.394531 18.105469 L 1.070312 18.105469 L 1.097656 18.402344 C 1.125 18.6875 1.359375 18.898438 1.640625 18.898438 L 22.359375 18.898438 C 22.640625 18.898438 22.875 18.6875 22.902344 18.402344 L 22.929688 18.105469 Z M 20.605469 18.105469 "/>
<path style=" stroke:none;fill-rule:nonzero;fill:rgb(27.058824%,27.058824%,27.058824%);fill-opacity:1;" d="M 1.652344 18.902344 C 1.371094 18.902344 1.140625 18.691406 1.109375 18.417969 C 1.027344 17.703125 0.828125 16.453125 0.722656 15.828125 L 0.722656 20.34375 C 0.722656 20.855469 1.136719 21.269531 1.648438 21.269531 L 3.210938 21.269531 C 3.722656 21.269531 4.136719 20.855469 4.136719 20.34375 L 4.136719 18.902344 Z M 1.652344 18.902344 "/>
<path style=" stroke:none;fill-rule:nonzero;fill:rgb(92.941176%,38.431373%,38.431373%);fill-opacity:1;" d="M 2.101562 8.292969 L 2.101562 7.851562 C 2.101562 7.449219 1.777344 7.125 1.375 7.125 L 0.753906 7.125 C 0.410156 7.125 0.09375 7.355469 0.0195312 7.691406 C -0.0585938 8.027344 0.113281 8.367188 0.421875 8.507812 C 0.765625 8.664062 1.136719 8.746094 1.515625 8.746094 L 2.242188 8.746094 L 2.429688 8.292969 Z M 2.101562 8.292969 "/>
<path style=" stroke:none;fill-rule:nonzero;fill:rgb(100%,74.117647%,28.627451%);fill-opacity:1;" d="M 4.058594 11.625 C 4.058594 12.125 3.652344 12.535156 3.148438 12.535156 C 2.648438 12.535156 2.238281 12.125 2.238281 11.625 C 2.238281 11.121094 2.648438 10.714844 3.148438 10.714844 C 3.652344 10.714844 4.058594 11.121094 4.058594 11.625 Z M 4.058594 11.625 "/>
<path style=" stroke:none;fill-rule:nonzero;fill:rgb(100%,85.882353%,43.529412%);fill-opacity:1;" d="M 5.648438 12.34375 C 5.648438 12.710938 5.351562 13.011719 4.980469 13.011719 C 4.613281 13.011719 4.3125 12.710938 4.3125 12.34375 C 4.3125 11.972656 4.613281 11.671875 4.980469 11.671875 C 5.351562 11.671875 5.648438 11.972656 5.648438 12.34375 Z M 5.648438 12.34375 "/>
<path style=" stroke:none;fill-rule:nonzero;fill:rgb(43.529412%,43.529412%,43.529412%);fill-opacity:1;" d="M 16.835938 16.484375 L 7.164062 16.484375 C 7.011719 16.484375 6.890625 16.609375 6.890625 16.757812 C 6.890625 16.910156 7.011719 17.03125 7.164062 17.03125 L 16.835938 17.03125 C 16.988281 17.03125 17.109375 16.910156 17.109375 16.757812 C 17.109375 16.609375 16.988281 16.484375 16.835938 16.484375 Z M 16.835938 16.484375 "/>
<path style=" stroke:none;fill-rule:nonzero;fill:rgb(43.529412%,43.529412%,43.529412%);fill-opacity:1;" d="M 16.835938 17.578125 L 7.164062 17.578125 C 7.011719 17.578125 6.890625 17.703125 6.890625 17.851562 C 6.890625 18.003906 7.011719 18.125 7.164062 18.125 L 16.835938 18.125 C 16.988281 18.125 17.109375 18.003906 17.109375 17.851562 C 17.109375 17.699219 16.988281 17.578125 16.835938 17.578125 Z M 16.835938 17.578125 "/>
<path style=" stroke:none;fill-rule:nonzero;fill:rgb(22.745098%,63.529412%,92.156863%);fill-opacity:1;" d="M 20.308594 6.382812 L 20.308594 6.476562 C 20.308594 6.851562 20 7.15625 19.613281 7.140625 C 19.257812 7.117188 18.988281 6.800781 18.988281 6.4375 L 18.988281 5.089844 C 18.988281 4.773438 18.722656 4.53125 18.40625 4.539062 C 18.398438 4.539062 18.398438 4.539062 18.390625 4.539062 C 18.390625 4.539062 18.390625 4.539062 18.382812 4.539062 C 18.066406 4.535156 17.800781 4.773438 17.800781 5.089844 L 17.800781 6.308594 C 17.800781 6.6875 17.476562 6.988281 17.101562 6.964844 C 16.746094 6.949219 16.472656 6.625 16.472656 6.269531 L 16.472656 5.210938 C 16.472656 4.894531 16.210938 4.632812 15.886719 4.632812 L 15.839844 4.632812 C 15.539062 4.632812 15.289062 4.878906 15.289062 5.183594 L 15.289062 6.558594 C 15.289062 6.9375 14.972656 7.238281 14.585938 7.222656 C 14.230469 7.199219 13.96875 6.882812 13.96875 6.519531 L 13.96875 4.675781 C 13.96875 4.382812 13.710938 4.132812 13.410156 4.15625 L 13.363281 4.15625 C 13.054688 4.15625 12.804688 4.402344 12.804688 4.707031 L 12.804688 6.59375 C 12.804688 6.953125 12.511719 7.257812 12.140625 7.257812 C 11.789062 7.257812 11.492188 6.96875 11.484375 6.613281 L 11.484375 5.03125 C 11.484375 4.667969 11.214844 4.351562 10.859375 4.328125 C 10.476562 4.316406 10.164062 4.617188 10.164062 4.992188 L 10.15625 6.457031 C 10.15625 6.832031 9.847656 7.132812 9.464844 7.121094 C 9.117188 7.097656 8.851562 6.792969 8.839844 6.445312 L 8.839844 4.730469 C 8.839844 4.371094 8.574219 4.054688 8.21875 4.03125 C 7.835938 4.015625 7.519531 4.316406 7.519531 4.695312 L 7.519531 6.492188 C 7.507812 6.863281 7.199219 7.15625 6.820312 7.140625 C 6.46875 7.117188 6.203125 6.800781 6.203125 6.4375 L 6.203125 5.089844 C 6.203125 4.773438 5.929688 4.53125 5.613281 4.539062 C 5.605469 4.539062 5.605469 4.539062 5.605469 4.539062 C 5.597656 4.539062 5.597656 4.539062 5.597656 4.539062 C 5.273438 4.535156 5.011719 4.773438 5.011719 5.089844 L 5.011719 6.308594 C 5.011719 6.6875 4.695312 6.988281 4.316406 6.964844 C 3.988281 6.953125 3.742188 6.675781 3.699219 6.359375 C 3.351562 7.082031 3.007812 7.863281 2.671875 8.699219 C 8.878906 9.1875 15.113281 9.1875 21.320312 8.699219 C 20.988281 7.863281 20.648438 7.089844 20.308594 6.382812 Z M 20.308594 6.382812 "/>
</g>
</svg>
