<?xml version="1.0" encoding="UTF-8"?>
<svg xmlns="http://www.w3.org/2000/svg" xmlns:xlink="http://www.w3.org/1999/xlink" width="24pt" height="24pt" viewBox="0 0 24 24" version="1.1">
<g id="surface1">
<path style=" stroke:none;fill-rule:nonzero;fill:rgb(91.372549%,32.54902%,32.54902%);fill-opacity:1;" d="M 3.867188 1.75 L 7.382812 1.75 L 7.382812 10.1875 L 3.867188 10.1875 Z M 3.867188 1.75 "/>
<path style=" stroke:none;fill-rule:nonzero;fill:rgb(89.803922%,89.803922%,89.803922%);fill-opacity:1;" d="M 12 2.828125 L 2.84375 11.984375 L 2.84375 22.5 L 21.15625 22.5 L 21.15625 11.984375 Z M 12 2.828125 "/>
<path style=" stroke:none;fill-rule:nonzero;fill:rgb(85.882353%,85.882353%,85.882353%);fill-opacity:1;" d="M 18.226562 12.625 C 17.820312 12.625 17.488281 12.957031 17.488281 13.367188 C 17.488281 13.773438 17.820312 14.101562 18.226562 14.101562 L 19.480469 14.101562 C 19.820312 14.101562 20.101562 14.382812 20.097656 14.722656 C 20.097656 15.1875 19.832031 15.398438 19.511719 15.398438 L 18.367188 15.398438 C 17.964844 15.398438 17.609375 15.699219 17.582031 16.101562 C 17.566406 16.523438 17.902344 16.882812 18.324219 16.882812 L 19.324219 16.882812 C 19.652344 16.882812 19.941406 17.105469 19.941406 17.554688 C 19.945312 17.917969 19.652344 18.210938 19.292969 18.210938 L 18.410156 18.210938 C 18.007812 18.210938 17.652344 18.511719 17.625 18.910156 C 17.605469 19.335938 17.945312 19.6875 18.367188 19.6875 L 19.667969 19.6875 C 20.023438 19.6875 20.289062 19.992188 20.285156 20.347656 C 20.285156 20.347656 20.285156 20.355469 20.285156 20.359375 L 20.285156 20.363281 C 20.289062 20.722656 20.023438 21.023438 19.667969 21.023438 L 18.28125 21.023438 C 17.882812 21.023438 17.527344 21.324219 17.503906 21.722656 C 17.484375 22.148438 17.820312 22.5 18.242188 22.5 L 21.15625 22.5 L 21.15625 12.625 Z M 18.226562 12.625 "/>
<path style=" stroke:none;fill-rule:nonzero;fill:rgb(85.882353%,85.882353%,85.882353%);fill-opacity:1;" d="M 5.773438 22.5 C 6.179688 22.5 6.511719 22.167969 6.511719 21.761719 C 6.511719 21.351562 6.179688 21.023438 5.773438 21.023438 L 4.519531 21.023438 C 4.179688 21.023438 3.898438 20.742188 3.902344 20.402344 C 3.902344 19.9375 4.167969 19.726562 4.488281 19.726562 L 5.632812 19.726562 C 6.035156 19.726562 6.390625 19.425781 6.417969 19.023438 C 6.433594 18.601562 6.097656 18.246094 5.675781 18.246094 L 4.675781 18.246094 C 4.332031 18.246094 4.050781 17.96875 4.050781 17.621094 C 4.109375 17.117188 4.363281 16.914062 4.707031 16.914062 L 5.589844 16.914062 C 5.992188 16.914062 6.347656 16.613281 6.375 16.214844 C 6.394531 15.789062 6.054688 15.4375 5.632812 15.4375 L 4.332031 15.4375 C 3.976562 15.4375 3.710938 15.132812 3.714844 14.777344 C 3.714844 14.777344 3.714844 14.773438 3.714844 14.765625 L 3.714844 14.761719 C 3.710938 14.402344 3.976562 14.101562 4.332031 14.101562 L 5.714844 14.101562 C 6.113281 14.101562 6.472656 13.800781 6.496094 13.402344 C 6.515625 12.976562 6.175781 12.625 5.753906 12.625 L 2.84375 12.625 L 2.84375 22.5 Z M 5.773438 22.5 "/>
<path style=" stroke:none;fill-rule:nonzero;fill:rgb(92.941176%,38.431373%,38.431373%);fill-opacity:1;" d="M 23.554688 12.425781 L 13.070312 1.941406 C 12.480469 1.351562 11.519531 1.351562 10.929688 1.941406 L 0.445312 12.425781 C -0.148438 13.019531 -0.148438 13.980469 0.445312 14.570312 C 1.035156 15.164062 1.996094 15.164062 2.589844 14.570312 L 12 5.160156 L 21.410156 14.570312 C 21.707031 14.867188 22.09375 15.015625 22.484375 15.015625 C 22.871094 15.015625 23.261719 14.867188 23.554688 14.570312 C 24.148438 13.980469 24.148438 13.019531 23.554688 12.425781 Z M 23.554688 12.425781 "/>
<path style=" stroke:none;fill-rule:nonzero;fill:rgb(43.529412%,43.529412%,43.529412%);fill-opacity:1;" d="M 9.054688 15.015625 L 14.945312 15.015625 L 14.945312 22.5 L 9.054688 22.5 Z M 9.054688 15.015625 "/>
<path style=" stroke:none;fill-rule:nonzero;fill:rgb(79.215686%,79.215686%,79.215686%);fill-opacity:1;" d="M 13.640625 11.023438 C 13.640625 11.929688 12.90625 12.664062 12 12.664062 C 11.09375 12.664062 10.359375 11.929688 10.359375 11.023438 C 10.359375 10.121094 11.09375 9.386719 12 9.386719 C 12.90625 9.386719 13.640625 10.121094 13.640625 11.023438 Z M 13.640625 11.023438 "/>
<path style=" stroke:none;fill-rule:nonzero;fill:rgb(92.941176%,41.960784%,41.960784%);fill-opacity:1;" d="M 23.957031 13.828125 L 23.25 14.519531 C 23.023438 14.738281 22.660156 14.730469 22.441406 14.488281 C 22.25 14.261719 22.28125 13.910156 22.492188 13.707031 L 22.835938 13.375 C 23.015625 13.191406 23.023438 12.894531 22.820312 12.691406 C 22.8125 12.683594 22.8125 12.683594 22.8125 12.683594 C 22.628906 12.496094 22.328125 12.472656 22.136719 12.660156 L 21.742188 13.039062 C 21.515625 13.269531 21.152344 13.253906 20.941406 13.015625 C 20.742188 12.78125 20.773438 12.441406 20.992188 12.230469 L 21.289062 11.933594 C 21.476562 11.742188 21.484375 11.433594 21.289062 11.242188 L 21.289062 11.234375 C 21.0625 11.007812 20.777344 11.035156 20.605469 11.207031 L 20.121094 11.683594 C 19.894531 11.902344 19.53125 11.894531 19.308594 11.652344 C 19.113281 11.425781 19.148438 11.085938 19.363281 10.871094 L 20.332031 9.917969 C 20.503906 9.75 20.539062 9.492188 20.296875 9.25 C 20.121094 9.066406 19.816406 9.058594 19.636719 9.242188 L 18.710938 10.152344 C 18.492188 10.363281 18.132812 10.363281 17.921875 10.144531 C 17.710938 9.925781 17.710938 9.582031 17.921875 9.371094 L 18.46875 8.832031 C 18.679688 8.628906 18.71875 8.269531 18.511719 8.050781 C 18.300781 7.808594 17.9375 7.800781 17.710938 8.019531 L 16.980469 8.734375 C 16.753906 8.953125 16.390625 8.945312 16.171875 8.703125 C 15.972656 8.476562 16.011719 8.128906 16.222656 7.921875 L 17.003906 7.164062 C 17.199219 6.972656 17.179688 6.679688 16.980469 6.480469 L 16.972656 6.472656 C 16.792969 6.285156 16.488281 6.261719 16.300781 6.453125 L 15.65625 7.082031 C 15.425781 7.300781 15.0625 7.292969 14.84375 7.050781 C 14.648438 6.832031 14.683594 6.480469 14.898438 6.269531 L 15.320312 5.851562 C 15.519531 5.664062 15.519531 5.351562 15.328125 5.164062 C 15.09375 4.929688 14.828125 4.941406 14.640625 5.125 L 14.152344 5.601562 C 13.925781 5.824219 13.5625 5.808594 13.351562 5.570312 C 13.152344 5.34375 13.183594 4.996094 13.402344 4.785156 L 14.054688 4.148438 C 14.238281 3.964844 14.238281 3.675781 14.046875 3.511719 C 13.804688 3.269531 13.53125 3.296875 13.359375 3.464844 L 12.941406 3.875 C 12.722656 4.09375 12.371094 4.085938 12.160156 3.875 C 12.054688 3.769531 12 3.625 12 3.480469 C 12 3.335938 12.054688 3.191406 12.167969 3.085938 L 13.199219 2.070312 L 23.554688 12.425781 C 23.933594 12.804688 24.070312 13.335938 23.957031 13.828125 Z M 23.957031 13.828125 "/>
<path style=" stroke:none;fill-rule:nonzero;fill:rgb(92.941176%,41.960784%,41.960784%);fill-opacity:1;" d="M 12 3.480469 C 12 3.625 11.949219 3.769531 11.839844 3.875 C 11.628906 4.085938 11.273438 4.09375 11.0625 3.875 L 10.644531 3.464844 C 10.453125 3.289062 10.160156 3.289062 9.984375 3.480469 C 9.742188 3.71875 9.769531 3.972656 9.9375 4.148438 L 10.597656 4.785156 C 10.816406 4.996094 10.847656 5.34375 10.652344 5.570312 C 10.4375 5.808594 10.074219 5.824219 9.847656 5.601562 L 9.355469 5.125 C 9.171875 4.941406 8.878906 4.941406 8.695312 5.132812 C 8.515625 5.402344 8.441406 5.625 8.679688 5.851562 L 9.105469 6.269531 C 9.316406 6.480469 9.347656 6.832031 9.15625 7.050781 C 8.9375 7.292969 8.574219 7.300781 8.347656 7.082031 L 7.703125 6.453125 C 7.511719 6.261719 7.210938 6.285156 7.019531 6.472656 L 7.019531 6.480469 L 7.011719 6.480469 C 6.824219 6.679688 6.808594 6.976562 6.996094 7.164062 L 7.777344 7.921875 C 7.988281 8.128906 8.019531 8.476562 7.824219 8.703125 C 7.609375 8.945312 7.246094 8.953125 7.019531 8.734375 L 6.292969 8.019531 C 6.0625 7.800781 5.699219 7.808594 5.488281 8.050781 C 5.285156 8.269531 5.320312 8.628906 5.535156 8.832031 L 6.078125 9.371094 C 6.285156 9.582031 6.285156 9.925781 6.078125 10.144531 C 5.859375 10.363281 5.511719 10.363281 5.289062 10.152344 L 4.367188 9.242188 C 4.195312 9.070312 3.914062 9.042969 3.675781 9.28125 C 3.488281 9.445312 3.488281 9.742188 3.667969 9.917969 L 4.640625 10.871094 C 4.851562 11.085938 4.882812 11.425781 4.691406 11.652344 C 4.472656 11.894531 4.109375 11.902344 3.878906 11.683594 L 3.394531 11.207031 C 3.214844 11.023438 2.917969 11.03125 2.734375 11.214844 L 2.714844 11.234375 L 2.714844 11.242188 C 2.515625 11.433594 2.523438 11.742188 2.714844 11.933594 L 3.007812 12.230469 C 3.230469 12.441406 3.257812 12.78125 3.0625 13.015625 C 2.851562 13.253906 2.476562 13.269531 2.257812 13.039062 L 1.863281 12.660156 C 1.675781 12.472656 1.371094 12.496094 1.1875 12.683594 C 1.183594 12.683594 1.183594 12.683594 1.183594 12.691406 C 1.183594 12.691406 1.183594 12.691406 1.175781 12.691406 C 0.984375 12.882812 0.96875 13.183594 1.167969 13.375 L 1.507812 13.707031 C 1.71875 13.910156 1.75 14.261719 1.554688 14.488281 C 1.339844 14.730469 0.976562 14.738281 0.75 14.519531 L 0.0429688 13.828125 C -0.0703125 13.335938 0.0664062 12.804688 0.445312 12.425781 L 10.804688 2.070312 L 11.835938 3.085938 C 11.949219 3.191406 12 3.335938 12 3.480469 Z M 12 3.480469 "/>
</g>
</svg>
